<svg id="Grupo_5387" data-name="Grupo 5387" xmlns="http://www.w3.org/2000/svg" width="75.648" height="23.356" viewBox="0 0 75.648 23.356">
  <path id="Trazado_1" data-name="Trazado 1" d="M4.047.828A7.47,7.47,0,0,0,.007,7.782a7.96,7.96,0,0,0,7.161,7.147,7.506,7.506,0,0,0,5.181-1.791A6.9,6.9,0,0,0,14.884,8.4,5.642,5.642,0,0,0,13.66,4.432a4.867,4.867,0,0,0-1.139-.965.064.064,0,0,0-.016-.007h.028A4.574,4.574,0,0,0,13.9,2.432a3.148,3.148,0,0,0,.8-1.263q.031-.084.057-.172a3.346,3.346,0,0,0,.127-.625A.338.338,0,0,0,14.7.037.365.365,0,0,0,14.548,0H7.469A7.463,7.463,0,0,0,4.047.828m4.7,2.821a4.028,4.028,0,0,1,2.727,4.224c-.005.057-.012.113-.021.169A4.03,4.03,0,1,1,7.049,3.462a.01.01,0,0,1,.007,0,4.032,4.032,0,0,1,1.695.188" transform="translate(0 -0.001)" fill="#5eb809"/>
  <path id="Trazado_2" data-name="Trazado 2" d="M43.713,199.976a6.85,6.85,0,0,1-3.037-.73,1.827,1.827,0,0,1,1.625-3.272,3.2,3.2,0,0,0,1.524.345A4.376,4.376,0,0,0,47.34,193.5a1.839,1.839,0,0,1,2.025-1.067h0a1.824,1.824,0,0,1,1.327,2.522,7.993,7.993,0,0,1-6.727,5.018c-.085,0-.169,0-.253,0" transform="translate(-36.428 -176.62)" fill="#478a48"/>
  <path id="Trazado_3" data-name="Trazado 3" d="M298.493,78.078c0-3.547,2.231-5.954,5.521-5.954,2.568,0,4.253,1,4.975,3.13l-2.5.466a2.387,2.387,0,0,0-2.44-1.429c-1.814,0-3,1.493-3,3.82,0,2.343,1.172,3.8,3.033,3.8a2.554,2.554,0,0,0,2.745-2.664h-2.777V77.292h5.377c.032.353.032.674.032,1,0,3.579-2.086,5.762-5.489,5.762-3.338,0-5.473-2.343-5.473-5.97" transform="translate(-274.016 -66.21)" fill="#5eb809"/>
  <path id="Trazado_4" data-name="Trazado 4" d="M778.614,69.932h0a1.212,1.212,0,0,1,1.212,1.212V77.9a1.212,1.212,0,1,1-2.423,0V71.143a1.212,1.212,0,0,1,1.212-1.212m1.207-1.839a1.207,1.207,0,1,1-1.207-1.207,1.207,1.207,0,0,1,1.207,1.207" transform="translate(-713.654 -61.401)" fill="#5eb809"/>
  <path id="Trazado_5" data-name="Trazado 5" d="M250.325,69.932h0a1.212,1.212,0,0,1,1.212,1.212V77.9a1.212,1.212,0,1,1-2.423,0V71.143a1.212,1.212,0,0,1,1.212-1.212m1.207-1.839a1.207,1.207,0,1,1-1.207-1.207,1.207,1.207,0,0,1,1.207,1.207" transform="translate(-228.685 -61.401)" fill="#478a48"/>
  <path id="Trazado_6" data-name="Trazado 6" d="M818.2,109.068l2.215-.369a2.232,2.232,0,0,0,2.167,1.139c1.091,0,1.717-.369,1.717-1.011,0-1.83-5.794-.337-5.762-4.012.032-1.653,1.669-2.745,3.948-2.745,1.894,0,3.6.883,4.044,2.311l-2.183.385a1.879,1.879,0,0,0-1.8-1c-1.011,0-1.605.353-1.605.963,0,1.83,5.81.193,5.81,3.868,0,1.83-1.621,2.969-4.189,2.969-2.279,0-3.916-1.011-4.365-2.5" transform="translate(-751.105 -93.7)" fill="#5eb809"/>
  <path id="Trazado_7" data-name="Trazado 7" d="M451.5,104.931a4.687,4.687,0,0,0-4.363-2.535,4.994,4.994,0,0,0-4.484,4.493,4.71,4.71,0,0,0,1.123,3.25,4.328,4.328,0,0,0,2.974,1.591,3.539,3.539,0,0,0,2.488-.768,3.054,3.054,0,0,0,.605-.715.043.043,0,0,0,0-.01v.017a2.87,2.87,0,0,0,.645.859,1.974,1.974,0,0,0,.793.5q.052.02.108.036a2.1,2.1,0,0,0,.392.08.212.212,0,0,0,.21-.116.228.228,0,0,0,.023-.1v-4.441a4.682,4.682,0,0,0-.519-2.147m-1.77,2.951a2.527,2.527,0,0,1-2.65,1.711c-.036,0-.071-.008-.106-.013a2.528,2.528,0,1,1,2.872-2.766.006.006,0,0,1,0,0,2.528,2.528,0,0,1-.118,1.063" transform="translate(-406.351 -93.996)" fill="#5eb809"/>
  <path id="Trazado_8" data-name="Trazado 8" d="M653.21,67.443h0a1.224,1.224,0,0,0-1.224,1.225q0,1.08,0,2.159v.332a4.551,4.551,0,0,0-1.958-.89,4.408,4.408,0,0,0-.617-.072,4.709,4.709,0,1,0-.081,9.415c.139.013.279.02.421.02a4.658,4.658,0,0,0,2.234-.567,4.543,4.543,0,0,0,.647-.424,2.171,2.171,0,0,0,1.57.961.214.214,0,0,0,.234-.214v-4.47q0-3.123,0-6.247a1.228,1.228,0,0,0-1.228-1.228M649.5,77.461a2.5,2.5,0,0,1-.529-.11l-.007,0a2.562,2.562,0,1,1,2.317-4.415l0,0a2.527,2.527,0,0,1-1.785,4.525" transform="translate(-591.702 -61.913)" fill="#5eb809"/>
  <path id="Trazado_9" data-name="Trazado 9" d="M580.045,104.078V106a.234.234,0,0,1-.249.234,2.558,2.558,0,0,0-1.994.712,2.5,2.5,0,0,0-.684,1.648v2.281a2.167,2.167,0,0,1-2.167,2.167.235.235,0,0,1-.235-.235v-4.213a4.929,4.929,0,0,1,1.388-3.346,4.993,4.993,0,0,1,3.715-1.4.235.235,0,0,1,.226.235" transform="translate(-527.588 -95.325)" fill="#6bb54f"/>
  <rect id="Rectángulo_2" data-name="Rectángulo 2" width="75.648" height="23.356" transform="translate(0 0)" fill="none"/>
  <path id="Trazado_10" data-name="Trazado 10" d="M7.082,194.21A1.813,1.813,0,1,1,5.269,192.4a1.813,1.813,0,0,1,1.813,1.813" transform="translate(-3.173 -176.62)" fill="#478a48"/>
</svg>
